{
    "accessors" : [
        {
            "bufferView" : 0,
            "componentType" : 5123,
            "count" : 1908,
            "max" : [
                1215
            ],
            "min" : [
                0
            ],
            "type" : "SCALAR"
        },
        {
            "bufferView" : 1,
            "componentType" : 5126,
            "count" : 1216,
            "max" : [
                0.9999998211860657,
                2.0516180992126465,
                1.0000004768371582
            ],
            "min" : [
                -1.000000238418579,
                -3.031759738922119,
                -0.9999996423721313
            ],
            "type" : "VEC3"
        },
        {
            "bufferView" : 2,
            "componentType" : 5126,
            "count" : 1216,
            "max" : [
                1.0,
                0.729819655418396,
                0.999969482421875
            ],
            "min" : [
                -1.0,
                -0.6856898665428162,
                -1.0
            ],
            "type" : "VEC3"
        },
        {
            "bufferView" : 3,
            "componentType" : 5126,
            "count" : 1216,
            "max" : [
                1.0,
                1.0
            ],
            "min" : [
                0.0,
                0.0
            ],
            "type" : "VEC2"
        },
        {
            "bufferView" : 4,
            "componentType" : 5126,
            "count" : 1216,
            "max" : [
                0.9989989995956421,
                0.9989989990135655
            ],
            "min" : [
                0.0010010009864345193,
                0.0010010004043579102
            ],
            "type" : "VEC2"
        },
        {
            "bufferView" : 5,
            "componentType" : 5126,
            "count" : 1216,
            "max" : [
                0.9989989995956421,
                0.9989989990135655
            ],
            "min" : [
                0.0010010009864345193,
                0.0010010004043579102
            ],
            "type" : "VEC2"
        }
    ],
    "asset" : {
        "generator" : "Khronos Blender glTF 2.0 exporter",
        "version" : "2.0"
    },
    "bufferViews" : [
        {
            "buffer" : 0,
            "byteLength" : 3816,
            "byteOffset" : 0,
            "target" : 34963
        },
        {
            "buffer" : 0,
            "byteLength" : 14592,
            "byteOffset" : 3816,
            "target" : 34962
        },
        {
            "buffer" : 0,
            "byteLength" : 14592,
            "byteOffset" : 18408,
            "target" : 34962
        },
        {
            "buffer" : 0,
            "byteLength" : 9728,
            "byteOffset" : 33000,
            "target" : 34962
        },
        {
            "buffer" : 0,
            "byteLength" : 9728,
            "byteOffset" : 42728,
            "target" : 34962
        },
        {
            "buffer" : 0,
            "byteLength" : 9728,
            "byteOffset" : 52456,
            "target" : 34962
        }
    ],
    "buffers" : [
        {
            "byteLength" : 62184,
            "uri" : "bottle.bin"
        }
    ],
    "materials" : [
        {
            "name" : "Texture",
            "pbrMetallicRoughness" : {
                "baseColorFactor" : [
                    0.800000011920929,
                    0.800000011920929,
                    0.800000011920929,
                    1.0
                ],
                "metallicFactor" : 0.0
            }
        }
    ],
    "meshes" : [
        {
            "name" : "Cylinder",
            "primitives" : [
                {
                    "attributes" : {
                        "NORMAL" : 2,
                        "POSITION" : 1,
                        "TEXCOORD_0" : 3,
                        "TEXCOORD_1" : 4,
                        "TEXCOORD_2" : 5
                    },
                    "indices" : 0,
                    "material" : 0
                }
            ]
        }
    ],
    "nodes" : [
        {
            "mesh" : 0,
            "name" : "Cylinder"
        }
    ],
    "scene" : 0,
    "scenes" : [
        {
            "name" : "Scene",
            "nodes" : [
                0
            ]
        }
    ]
}
